#!OML:ASF H:\Dans Jumps\Project 1\Capture day 1\Session 1\subject.ASF
:FULLY-SPECIFIED
:DEGREES
243
root 0.229679 13.3995 -16.6743 27.1945 0.0446851 -2.37065
lowerback 29.6469 0.959195 -2.16081
upperback 2.47337 0.948159 2.98038
thorax -12.9785 0.610963 4.03132
lowerneck -23.7404 0.41683 -1.43201
upperneck 6.39774 1.04629 -0.476341
head 5.68218 0.428494 0.190746
rclavicle -1.88845e-015 2.19657e-014
rhumerus -42.8047 -16.7216 -65.916
rradius 24.0835
rwrist 30.8669
rhand -17.2845 -24.0394
rfingers 7.12502
rthumb 8.96084 -53.8291
lclavicle -1.88845e-015 2.19657e-014
lhumerus -43.456 4.68343 78.5687
lradius 15.5774
lwrist 7.5727
lhand -28.6666 -7.3561
lfingers 7.12502
lthumb -2.02969 22.614
rfemur -85.4143 -1.46604 22.6228
rtibia 89.2243
rfoot -30.6285 -14.1278
rtoes 0.501898
lfemur -85.4663 8.36583 -21.7068
ltibia 89.1499
lfoot -26.8222 16.6724
ltoes -11.7393
244
root 0.219799 13.3192 -16.6997 27.3885 0.137478 -2.4004
lowerback 30.8757 1.02393 -2.18101
upperback 2.30178 1.02101 3.03346
thorax -13.7284 0.658001 4.07147
lowerneck -23.9488 0.404715 -1.41893
upperneck 6.03699 1.02765 -0.48774
head 5.59634 0.421396 0.182482
rclavicle -1.49089e-015 -3.70733e-014
rhumerus -43.5825 -16.9782 -65.2737
rradius 23.898
rwrist 30.9078
rhand -17.205 -24.015
rfingers 7.12502
rthumb 9.03753 -53.8014
lclavicle -1.49089e-015 -3.70733e-014
lhumerus -44.3033 5.3765 77.7787
lradius 15.118
lwrist 6.85973
lhand -28.7825 -7.3945
lfingers 7.12502
lthumb -2.14169 22.5745
rfemur -86.2574 -1.49232 22.7753
rtibia 90.0362
rfoot -30.8185 -14.4006
rtoes 0.727821
lfemur -86.3372 8.31893 -21.6708
ltibia 89.9546
lfoot -27.0023 16.8738
ltoes -11.857
245
root 0.2098 13.2429 -16.7226 27.5521 0.223556 -2.39562
lowerback 32.1362 1.09603 -2.22765
upperback 2.13866 1.09161 3.07692
thorax -14.4755 0.704824 4.11566
lowerneck -24.1321 0.386686 -1.40706
upperneck 5.6391 0.999449 -0.48977
head 5.49465 0.410714 0.176233
rclavicle -7.45443e-015 -4.57205e-015
rhumerus -44.3216 -17.2543 -64.6365
rradius 23.6908
rwrist 31.0458
rhand -17.1403 -23.9964
rfingers 7.12502
rthumb 9.09993 -53.7801
lclavicle -7.45443e-015 -4.57205e-015
lhumerus -45.1044 6.07559 76.9582
lradius 14.6575
lwrist 6.20566
lhand -28.8944 -7.37542
lfingers 7.12502
lthumb -2.2497 22.5925
rfemur -87.0381 -1.54709 22.9054
rtibia 90.8136
rfoot -31.0247 -14.5672
rtoes 0.89503
lfemur -87.1281 8.25737 -21.6617
ltibia 90.7096
lfoot -27.1743 17.0631
ltoes -11.9365
246
root 0.19929 13.1702 -16.7426 27.7002 0.295856 -2.34983
lowerback 33.4031 1.17992 -2.31402
upperback 1.98461 1.15913 3.10923
thorax -15.207 0.75199 4.16973
lowerneck -24.3014 0.35681 -1.41441
upperneck 5.21371 0.957882 -0.467391
head 5.38179 0.395256 0.179346
rclavicle -5.76476e-015 -3.57812e-015
rhumerus -45.0141 -17.5626 -63.9996
rradius 23.4574
rwrist 31.3411
rhand -17.0898 -23.9663
rfingers 7.12502
rthumb 9.14872 -53.7478
lclavicle -5.76476e-015 -3.57812e-015
lhumerus -45.8497 6.79016 76.1017
lradius 14.1888
lwrist 5.5552
lhand -28.7786 -7.17191
lfingers 7.12502
lthumb -2.13793 22.7971
rfemur -87.7755 -1.62615 23.0035
rtibia 91.5598
rfoot -31.2321 -14.6767
rtoes 1.05347
lfemur -87.8569 8.18805 -21.6945
ltibia 91.4171
lfoot -27.3335 17.24
ltoes -11.9747
